<?xml version="1.0" encoding="UTF-8"?>
<svg width="382px" height="73px" viewBox="0 0 382 73" version="1.1" xmlns="http://www.w3.org/2000/svg" xmlns:xlink="http://www.w3.org/1999/xlink">
    <!-- Generator: Sketch 39.1 (31720) - http://www.bohemiancoding.com/sketch -->
    <title>Group 4 Copy</title>
    <desc>Created with Sketch.</desc>
    <defs></defs>
    <g id="Page-1" stroke="none" stroke-width="1" fill="none" fill-rule="evenodd">
        <g id="Group-4-Copy" fill="#FFFFFF">
            <g id="Group" transform="translate(216.000000, 0.000000)">
                <path d="M11.2879716,47.6872151 L11.2879716,30.8241374 L16.1480705,30.8241374 C17.4022959,30.8241374 18.5519852,30.9548576 19.597173,31.216302 C20.6423607,31.4777464 21.5438217,31.9352672 22.3015828,32.5888781 C23.059344,33.242489 23.6603179,34.1052425 24.1045227,35.1771644 C24.5487275,36.2490864 24.7708266,37.5955047 24.7708266,39.2164598 C24.7708266,42.45837 23.9346889,44.6806139 22.2623885,45.883258 C20.590088,47.0859021 18.3952266,47.6872151 15.6777384,47.6872151 L11.2879716,47.6872151 Z M11.2879716,22.9808454 L11.2879716,8.31388948 L15.3641836,8.31388948 C18.1861906,8.31388948 20.2504055,8.86291443 21.5568903,9.96098079 C22.863375,11.0590472 23.5166076,12.9414184 23.5166076,15.608151 C23.5166076,18.2748836 22.7980517,20.1703269 21.3609185,21.2945377 C19.9237853,22.4187485 17.6374713,22.9808454 14.501908,22.9808454 L11.2879716,22.9808454 Z M0,0 L0,56.0011046 L19.0484521,56.0011046 C22.3407936,56.0011046 25.0974351,55.5566558 27.3184591,54.667745 C29.5394831,53.7788341 31.342405,52.5892801 32.7272788,51.0990471 C34.1121527,49.6088142 35.0920015,47.8702352 35.6668548,45.883258 C36.2417081,43.8962807 36.5291304,41.8047571 36.5291304,39.6086244 C36.5291304,35.8438254 35.6146048,32.8372603 33.7855262,30.5888386 C31.9564476,28.340417 29.4741638,27.0070707 26.3386005,26.5887597 C29.1606075,25.6475608 31.277081,24.1704222 32.6880845,22.000434 C34.099088,19.8304457 34.8045792,17.2291132 34.8045792,14.1963584 C34.8045792,11.5296258 34.4126396,9.28123797 33.6287488,7.45112736 C32.844858,5.62101675 31.7474272,4.15695023 30.3364237,3.05888386 C28.9254202,1.9608175 27.2400802,1.17649615 25.2803531,0.705896276 C23.320626,0.235296406 21.1910879,0 18.8916747,0 L0,0 Z M41.2830149,69.5699997 L45.6727817,69.5699997 C48.1812324,69.5699997 50.2585119,69.3869914 51.9046827,69.0209693 C53.5508534,68.6549471 54.9618358,67.8836978 56.137672,66.7071981 C57.3135083,65.5306985 58.3325511,63.8574796 59.194831,61.6874913 C60.0571109,59.517503 60.9585719,56.6808741 61.8992409,53.1775195 L71.9030719,23 L61.0854325,23 L55.7849229,42.9812399 L55.6281455,42.9812399 L49.1703513,23 L37.8823797,23 L49.905771,56.0011046 C49.7489929,57.7266375 49.2394715,59.1122719 48.3771915,60.1580493 C47.5149116,61.2038268 46.0908646,61.7267077 44.1050078,61.7267077 C43.1643388,61.7267077 42.2236839,61.6482756 41.2830149,61.491409 L41.2830149,69.5699997 Z M79.4330263,1.72552423 L79.4330261,22.9660099 L73.9458177,22.9660099 L73.9458177,30.3387044 L79.4330261,30.3387044 L79.4330263,45.3342275 C79.4330263,47.4780714 79.5636729,49.2558665 79.8249698,50.6676661 C80.0862667,52.0794657 80.5696588,53.2167316 81.2751606,54.0794981 C81.9806624,54.9422645 82.9997052,55.5174335 84.3323196,55.8050223 C85.664934,56.0926111 87.3764033,56.2364034 89.4667789,56.2364034 C90.7210042,56.2364034 91.9098875,56.1971873 93.0334644,56.118754 C94.1570412,56.0403207 95.3197952,56.0011046 96.5217612,56.0011046 L96.5217612,48.4715443 C96.1559454,48.5238332 95.7640059,48.5630493 95.3459308,48.5891937 C94.9278557,48.6153381 94.5097868,48.6284102 94.0917117,48.6284102 C92.52393,48.6284102 91.4918226,48.2754655 90.9953584,47.5695657 C90.4988942,46.8636659 90.2506658,45.6741119 90.2506658,44.0008679 L90.2506656,30.3387044 L96.521761,30.3387044 L96.521761,22.9660099 L90.2506656,22.9660099 L90.2506658,1.72552423 L79.4330263,1.72552423 Z M120.58709,35.1589313 L109.534284,35.1589313 L109.534284,33.8222638 C109.534284,33.0160158 109.625737,32.2097799 109.808644,31.403532 C109.991552,30.597284 110.292039,29.8653067 110.710114,29.2075781 C111.128189,28.5498495 111.68997,28.0194312 112.395471,27.6163072 C113.100973,27.2131832 114.002434,27.0116242 115.099881,27.0116242 C116.197328,27.0116242 117.098789,27.1919665 117.804291,27.5526563 C118.509793,27.9133462 119.058508,28.4437646 119.450454,29.1439273 C119.842399,29.84409 120.116757,30.6927593 120.273535,31.6899607 C120.430313,32.6871622 120.53483,33.8434741 120.58709,35.1589313 L120.58709,35.1589313 Z M109.534284,40.3783 L130.934397,40.3783 L130.934397,38.405124 C130.934397,35.7742096 130.725362,35.3194849 130.307287,33.1765626 C129.889212,31.0336404 129.105333,28.248398 127.955627,26.7419873 C126.80592,25.2355767 125.225097,24.0686563 123.213111,23.2411913 C121.201124,22.4137263 118.627388,22 115.491825,22 C111.833667,22 108.907185,22.4879849 106.712291,23.4639692 C104.517397,24.4399536 102.832057,25.7553911 101.65622,27.4103211 C100.480384,29.0652512 99.6965051,31.9141438 99.3045597,34.0358489 C98.9126143,36.1575541 98.7166445,36.4319366 98.7166445,38.7233782 C98.7166445,40.8875175 98.8342264,43.0516243 99.0693936,45.2157636 C99.3045609,47.3799028 99.9447288,49.3318423 100.989917,51.0716406 C102.035104,52.8114388 103.655121,54.2117432 105.850015,55.2725958 C108.04491,56.3334484 111.102038,56.8638667 115.021492,56.8638667 C120.195172,56.8638667 123.983921,55.8242468 126.387853,53.7449757 C128.791785,51.6657046 130.09825,48.6317118 130.307287,44.642906 L120.58709,44.642906 C120.273533,46.8070453 119.698689,48.4195171 118.862538,49.4803696 C118.026388,50.5412222 116.693794,51.0716406 114.864715,51.0716406 C113.871787,51.0716406 113.035649,50.8488649 112.356277,50.4033068 C111.676905,49.9577487 111.128189,49.3636802 110.710114,48.6210833 C110.292039,47.8784865 109.991552,47.0298172 109.808644,46.0750499 C109.625737,45.1202825 109.534284,44.1337044 109.534284,43.115286 L109.534284,40.3783 Z M144.495641,44.9611602 L134.775443,44.9611602 L134.775443,46.1705261 C134.775443,47.8254562 135.010607,49.3212359 135.480941,50.6579101 C135.951276,51.9945844 136.774349,53.1296796 137.950185,54.0632299 C139.126021,54.9967802 140.719909,55.6969324 142.731895,56.1637075 C144.743881,56.6304826 147.265359,56.8638667 150.296404,56.8638667 C152.595817,56.8638667 154.699226,56.6729161 156.606693,56.2910092 C158.514161,55.9091023 160.160307,55.2726003 161.545181,54.3814841 C162.930055,53.4903679 164.014421,52.3764894 164.798312,51.0398151 C165.582203,49.7031409 165.974142,48.1224942 165.974142,46.2978278 C165.974142,43.7093475 165.268651,41.6619327 163.857647,40.155522 C162.446644,38.6491114 160.042748,37.4291492 156.645888,36.4955989 L150.139626,35.6691866 C148.310548,35.2024115 147.069406,34.6398274 146.416164,33.9608818 C145.762921,33.2819361 145.436305,32.5181337 145.436305,31.6694516 C145.436305,30.4388626 146.036673,29.7379527 147.055731,29.1226582 C148.074789,28.5073637 149.263673,28.1997211 150.622417,28.1997211 C152.399236,28.1997211 153.640378,28.6134474 154.34588,29.4409124 C155.051381,30.2683774 155.31328,31.3511885 155.31328,33.1334209 L165.033478,33.1334209 L165.033478,31.7331025 C165.033478,28.6354129 163.948506,26.45994 161.596834,24.7625759 C159.245161,23.0652118 155.613188,22.2165424 150.700805,22.2165424 C147.931058,22.2165424 145.566356,22.49236 143.606629,23.0440033 C141.646902,23.5956466 140.03995,24.3382323 138.785724,25.2717826 C137.531499,26.2053329 136.616973,27.2979946 136.04212,28.5498007 C135.467267,29.8016067 135.088998,30.9056346 135.088998,32.30596 C135.088998,34.7247039 135.827753,36.0825753 137.343276,37.6314201 C138.858798,39.1802649 141.124912,40.0388246 144.103697,40.8875067 L151.7074,43.115286 C152.752588,43.4547588 153.667114,43.9109185 154.451004,44.4837789 C155.234895,45.0566393 155.626835,45.8947003 155.626835,46.997987 C155.626835,48.3558783 155.130378,49.3742815 154.13745,50.0532272 C153.144521,50.7321728 151.811927,51.0716406 150.139626,51.0716406 C148.310548,51.0716406 146.91263,50.6154808 145.945831,49.7031476 C144.979033,48.7908143 144.495641,47.5920689 144.495641,46.1068753 L144.495641,44.9611602 Z" id="Bytes"></path>
            </g>
            <path d="M33.4080025,56 L0.256003571,56 L0.256003571,31.1360008 L25.1200027,31.1360008 L25.1200027,33.2080008 L2.3280035,33.2080008 L2.3280035,53.9280001 L31.3360025,53.9280001 L31.3360025,24.920001 L0.256003571,24.920001 L0.256003571,22.8480011 L33.4080025,22.8480011 L33.4080025,56 Z M41.6960022,22.8480011 L74.8480011,22.8480011 L74.8480011,56 L49.9840019,56 L49.9840019,53.9280001 L72.7760012,53.9280001 L72.7760012,24.920001 L43.7680021,24.920001 L43.7680021,72.5759995 L41.6960022,72.5759995 L41.6960022,22.8480011 Z M116.288,22.8480011 L116.288,56 L83.1360008,56 L83.1360008,22.8480011 L116.288,22.8480011 Z M85.2080008,24.920001 L85.2080008,53.9280001 L114.216,53.9280001 L114.216,24.920001 L85.2080008,24.920001 Z M126.647999,6.27200165 L126.647999,53.9280001 L141.151999,53.9280001 L141.151999,56 L124.575999,56 L124.575999,6.27200165 L126.647999,6.27200165 Z M151.511999,6.27200165 L151.511999,53.9280001 L166.015998,53.9280001 L166.015998,56 L149.439999,56 L149.439999,6.27200165 L151.511999,6.27200165 Z M207.455997,22.8480011 L207.455997,56 L174.303998,56 L174.303998,22.8480011 L207.455997,22.8480011 Z M176.375998,24.920001 L176.375998,53.9280001 L205.383997,53.9280001 L205.383997,24.920001 L176.375998,24.920001 Z" id="apollo"></path>
        </g>
    </g>
</svg>